<svg width="663" height="379" viewBox="0 0 663 379" fill="none" xmlns="http://www.w3.org/2000/svg">
<path d="M147.875 373.972C119.229 373.972 93.7792 369.059 71.5254 359.234C49.39 349.291 31.9894 335.619 19.3237 318.219C6.65797 300.818 0.265922 280.813 0.147551 258.205H99.5794C99.6977 265.188 101.828 271.462 105.971 277.026C110.233 282.471 116.033 286.732 123.372 289.81C130.711 292.887 139.115 294.426 148.585 294.426C157.7 294.426 165.749 292.828 172.733 289.632C179.717 286.318 185.162 281.76 189.068 275.96C192.974 270.16 194.868 263.531 194.75 256.074C194.868 248.735 192.619 242.224 188.003 236.543C183.505 230.861 177.172 226.422 169.004 223.226C160.836 220.03 151.426 218.432 140.773 218.432H103.841V150.25H140.773C150.597 150.25 159.238 148.652 166.696 145.456C174.272 142.26 180.131 137.821 184.274 132.139C188.535 126.457 190.607 119.947 190.488 112.608C190.607 105.506 188.89 99.232 185.339 93.7869C181.788 88.3419 176.817 84.0805 170.425 81.0028C164.151 77.9252 156.871 76.3863 148.585 76.3863C139.589 76.3863 131.54 77.9844 124.437 81.1804C117.453 84.3764 111.949 88.8153 107.925 94.4972C103.9 100.179 101.828 106.689 101.71 114.028H7.24982C7.3682 91.7746 13.4643 72.125 25.5382 55.0795C37.7304 38.0341 54.4208 24.6581 75.6092 14.9517C96.7977 5.24525 121.123 0.392032 148.585 0.392032C175.455 0.392032 199.189 4.94932 219.785 14.0639C240.5 23.1785 256.658 35.7258 268.258 51.706C279.977 67.5677 285.777 85.7377 285.659 106.216C285.896 126.576 278.912 143.266 264.707 156.287C250.621 169.308 232.747 177.002 211.085 179.369V182.21C240.441 185.406 262.517 194.402 277.314 209.199C292.11 223.877 299.39 242.343 299.153 264.597C299.272 285.903 292.88 304.784 279.977 321.237C267.193 337.691 249.378 350.593 226.532 359.945C203.805 369.296 177.586 373.972 147.875 373.972ZM501.612 378.943C468.587 378.825 440.059 371.19 416.03 356.038C392.001 340.887 373.476 319.047 360.455 290.52C347.434 261.992 340.983 227.783 341.101 187.892C341.219 147.883 347.73 113.91 360.632 85.9744C373.653 58.0388 392.119 36.7912 416.03 22.2315C440.059 7.67187 468.587 0.392032 501.612 0.392032C534.638 0.392032 563.165 7.73105 587.195 22.4091C611.224 36.9687 629.749 58.2164 642.77 86.152C655.791 114.088 662.242 148.001 662.124 187.892C662.124 228.02 655.613 262.348 642.593 290.875C629.572 319.402 611.047 341.242 587.017 356.393C563.106 371.427 534.638 378.943 501.612 378.943ZM501.612 298.688C518.658 298.688 532.626 289.81 543.516 272.054C554.524 254.18 559.969 226.126 559.851 187.892C559.851 162.916 557.365 142.497 552.394 126.635C547.422 110.773 540.557 99.0544 531.797 91.4787C523.038 83.7846 512.976 79.9375 501.612 79.9375C484.567 79.9375 470.658 88.5786 459.887 105.861C449.115 123.143 443.611 150.487 443.374 187.892C443.255 213.342 445.682 234.294 450.654 250.747C455.625 267.082 462.491 279.156 471.25 286.969C480.128 294.781 490.249 298.688 501.612 298.688Z" fill="#454545"/>
</svg>
