<svg width="629" height="629" viewBox="0 0 629 629" fill="none" xmlns="http://www.w3.org/2000/svg">
<path d="M314.5 629C140.806 629 0 488.192 0 314.5C0 140.806 140.806 0 314.5 0C488.192 0 629 140.806 629 314.5C629 488.192 488.192 629 314.5 629ZM314.5 566.1C453.456 566.1 566.1 453.456 566.1 314.5C566.1 175.545 453.456 62.9 314.5 62.9C175.545 62.9 62.9 175.545 62.9 314.5C62.9 453.456 175.545 566.1 314.5 566.1ZM283.132 440.3L149.702 306.87L194.179 262.391L283.132 351.347L461.041 173.438L505.518 217.915L283.132 440.3Z" fill="#454545"/>
</svg>
