<svg width="602" height="602" viewBox="0 0 602 602" fill="none" xmlns="http://www.w3.org/2000/svg">
<path d="M301 602C134.762 602 0 467.236 0 301C0 134.762 134.762 0 301 0C467.236 0 602 134.762 602 301C602 467.236 467.236 602 301 602ZM301 541.8C433.991 541.8 541.8 433.991 541.8 301C541.8 168.01 433.991 60.2 301 60.2C168.01 60.2 60.2 168.01 60.2 301C60.2 433.991 168.01 541.8 301 541.8ZM301 258.433L386.135 173.297L428.702 215.864L343.567 301L428.702 386.135L386.135 428.702L301 343.567L215.864 428.702L173.297 386.135L258.433 301L173.297 215.864L215.864 173.297L301 258.433Z" fill="#454545"/>
</svg>
