<svg width="57" height="57" viewBox="0 0 57 57" fill="none" xmlns="http://www.w3.org/2000/svg">
<path d="M28.3333 0C43.9813 0 56.6667 12.6853 56.6667 28.3333C56.6667 43.9813 43.9813 56.6667 28.3333 56.6667C12.6853 56.6667 0 43.9813 0 28.3333H5.66667C5.66667 40.8519 15.8149 51 28.3333 51C40.8519 51 51 40.8519 51 28.3333C51 15.8149 40.8519 5.66667 28.3333 5.66667C20.5423 5.66667 13.6693 9.59746 9.58945 15.584L17 15.5833V21.25H0V4.25H5.66667L5.66636 11.331C10.8356 4.45046 19.0647 0 28.3333 0ZM31.1667 14.1667L31.1661 27.1575L40.354 36.3471L36.3471 40.354L25.4994 29.5035L25.5 14.1667H31.1667Z" fill="white"/>
</svg>
