<svg width="58" height="52" viewBox="0 0 58 52" fill="none" xmlns="http://www.w3.org/2000/svg">
<path d="M0 2.88889C0 1.29341 1.29839 0 2.9 0H55.1C56.7017 0 58 1.29341 58 2.88889V49.1111C58 50.7066 56.7017 52 55.1 52H2.9C1.29839 52 0 50.7066 0 49.1111V2.88889ZM5.8 5.77778V46.2222H52.2V5.77778H5.8ZM11.6 11.5556H29V28.8889H11.6V11.5556ZM17.4 17.3333V23.1111H23.2V17.3333H17.4ZM34.8 17.3333H46.4V11.5556H34.8V17.3333ZM46.4 28.8889H34.8V23.1111H46.4V28.8889ZM11.6 34.6667V40.4444H46.4V34.6667H11.6Z" fill="white"/>
</svg>
