<svg width="57" height="57" viewBox="0 0 57 57" fill="none" xmlns="http://www.w3.org/2000/svg">
<path d="M47.7105 0C49.2606 0 50.517 1.25653 50.517 2.8065V13.3505L44.904 18.9635V5.613H5.613V50.517H44.904V42.7767L50.517 37.1637V53.3235C50.517 54.8736 49.2606 56.13 47.7105 56.13H2.8065C1.25653 56.13 0 54.8736 0 53.3235V2.8065C0 1.25653 1.25653 0 2.8065 0H47.7105ZM52.701 19.1056L56.67 23.0745L34.8405 44.904L30.8656 44.8981L30.8715 40.9351L52.701 19.1056ZM28.065 28.065V33.678H14.0325V28.065H28.065ZM36.4845 16.839V22.452H14.0325V16.839H36.4845Z" fill="white"/>
</svg>
