<svg width="457" height="124" viewBox="0 0 457 124" fill="none" xmlns="http://www.w3.org/2000/svg">
<path d="M402.5 79H392.5L391 87.5" stroke="white"/>
<path d="M450.5 62.5H441L436.5 58L430.5 64" stroke="white"/>
<path d="M128.506 91.8965C127.432 92.873 126.276 93.8008 125.039 94.6797C123.835 95.526 122.565 96.2747 121.23 96.9258C119.896 97.5443 118.512 98.0326 117.08 98.3906C115.68 98.7812 114.248 98.9766 112.783 98.9766C109.561 98.9766 106.533 98.4069 103.701 97.2676C100.869 96.1283 98.3789 94.5169 96.2305 92.4336C94.1146 90.3177 92.4382 87.7624 91.2012 84.7676C89.9967 81.7402 89.3945 78.3548 89.3945 74.6113V45.7051H102.676V74.6113C102.676 76.3691 102.936 77.9479 103.457 79.3477C104.01 80.7148 104.743 81.8704 105.654 82.8145C106.566 83.7585 107.624 84.4746 108.828 84.9629C110.065 85.4512 111.383 85.6953 112.783 85.6953C114.15 85.6953 115.436 85.3861 116.641 84.7676C117.878 84.1165 118.952 83.2702 119.863 82.2285C120.775 81.1868 121.491 80.015 122.012 78.7129C122.533 77.3783 122.793 76.0111 122.793 74.6113V45.7051H136.123V98H132.9L128.506 91.8965ZM212.832 98H199.551V64.7969C199.551 63.8854 199.372 63.0228 199.014 62.209C198.688 61.3952 198.216 60.679 197.598 60.0605C196.979 59.4421 196.263 58.9701 195.449 58.6445C194.635 58.2865 193.773 58.1074 192.861 58.1074C191.95 58.1074 191.087 58.2865 190.273 58.6445C189.492 58.9701 188.792 59.4421 188.174 60.0605C187.588 60.679 187.116 61.3952 186.758 62.209C186.432 63.0228 186.27 63.8854 186.27 64.7969V98H172.939V64.7969C172.939 63.8854 172.76 63.0228 172.402 62.209C172.077 61.3952 171.605 60.679 170.986 60.0605C170.368 59.4421 169.652 58.9701 168.838 58.6445C168.024 58.2865 167.161 58.1074 166.25 58.1074C165.339 58.1074 164.476 58.2865 163.662 58.6445C162.881 58.9701 162.181 59.4421 161.562 60.0605C160.977 60.679 160.505 61.3952 160.146 62.209C159.821 63.0228 159.658 63.8854 159.658 64.7969V98H146.328V45.7051H149.551L153.164 49.709C155.02 48.1465 157.054 46.9421 159.268 46.0957C161.514 45.2168 163.841 44.7773 166.25 44.7773C168.691 44.7773 171.068 45.2331 173.379 46.1445C175.723 47.056 177.773 48.6348 179.531 50.8809C180.345 49.7741 181.273 48.8301 182.314 48.0488C183.356 47.2676 184.447 46.6328 185.586 46.1445C186.758 45.6562 187.962 45.3145 189.199 45.1191C190.436 44.8913 191.657 44.7773 192.861 44.7773C195.628 44.7773 198.216 45.2982 200.625 46.3398C203.066 47.3815 205.182 48.8138 206.973 50.6367C208.796 52.4271 210.228 54.543 211.27 56.9844C212.311 59.4258 212.832 62.0299 212.832 64.7969V98ZM243.398 85.207C243.919 85.3698 244.44 85.4837 244.961 85.5488C245.482 85.5814 246.003 85.5977 246.523 85.5977C247.826 85.5977 249.079 85.4186 250.283 85.0605C251.488 84.7025 252.611 84.1979 253.652 83.5469C254.727 82.8633 255.671 82.0495 256.484 81.1055C257.331 80.1289 258.014 79.0547 258.535 77.8828L268.301 87.6973C267.064 89.4551 265.632 91.0339 264.004 92.4336C262.409 93.8333 260.667 95.0215 258.779 95.998C256.924 96.9746 254.954 97.707 252.871 98.1953C250.82 98.7161 248.704 98.9766 246.523 98.9766C242.845 98.9766 239.378 98.293 236.123 96.9258C232.9 95.5586 230.068 93.6543 227.627 91.2129C225.218 88.7715 223.314 85.8743 221.914 82.5215C220.514 79.1361 219.814 75.4251 219.814 71.3887C219.814 67.2546 220.514 63.4785 221.914 60.0605C223.314 56.6426 225.218 53.7292 227.627 51.3203C230.068 48.9115 232.9 47.0397 236.123 45.7051C239.378 44.3704 242.845 43.7031 246.523 43.7031C248.704 43.7031 250.837 43.9635 252.92 44.4844C255.003 45.0052 256.973 45.7539 258.828 46.7305C260.716 47.707 262.474 48.9115 264.102 50.3438C265.729 51.7435 267.161 53.3223 268.398 55.0801L243.398 85.207ZM250.234 57.7168C249.616 57.4889 248.997 57.3424 248.379 57.2773C247.793 57.2122 247.174 57.1797 246.523 57.1797C244.701 57.1797 242.975 57.5215 241.348 58.2051C239.753 58.8561 238.353 59.8001 237.148 61.0371C235.977 62.2741 235.049 63.7715 234.365 65.5293C233.682 67.2546 233.34 69.2077 233.34 71.3887C233.34 71.877 233.356 72.4303 233.389 73.0488C233.454 73.6673 233.535 74.3021 233.633 74.9531C233.763 75.5716 233.91 76.1738 234.072 76.7598C234.235 77.3457 234.447 77.8665 234.707 78.3223L250.234 57.7168ZM325.283 98H322.061L316.885 90.8223C315.615 91.9616 314.264 93.0358 312.832 94.0449C311.432 95.0215 309.951 95.8841 308.389 96.6328C306.826 97.349 305.215 97.9186 303.555 98.3418C301.927 98.765 300.267 98.9766 298.574 98.9766C294.896 98.9766 291.429 98.293 288.174 96.9258C284.951 95.526 282.119 93.6055 279.678 91.1641C277.269 88.6901 275.365 85.7767 273.965 82.4238C272.565 79.0384 271.865 75.36 271.865 71.3887C271.865 67.4499 272.565 63.7878 273.965 60.4023C275.365 57.0169 277.269 54.0872 279.678 51.6133C282.119 49.1393 284.951 47.2025 288.174 45.8027C291.429 44.403 294.896 43.7031 298.574 43.7031C299.746 43.7031 300.951 43.8008 302.188 43.9961C303.457 44.1914 304.678 44.5169 305.85 44.9727C307.054 45.3958 308.177 45.9655 309.219 46.6816C310.26 47.3978 311.139 48.2767 311.855 49.3184V24.9043H325.283V98ZM311.855 71.3887C311.855 69.5658 311.497 67.8079 310.781 66.1152C310.098 64.39 309.154 62.8763 307.949 61.5742C306.745 60.2396 305.329 59.1816 303.701 58.4004C302.106 57.5866 300.397 57.1797 298.574 57.1797C296.751 57.1797 295.026 57.5052 293.398 58.1562C291.803 58.8073 290.404 59.7513 289.199 60.9883C288.027 62.1927 287.1 63.6738 286.416 65.4316C285.732 67.1895 285.391 69.1751 285.391 71.3887C285.391 73.3092 285.732 75.1322 286.416 76.8574C287.1 78.5827 288.027 80.0964 289.199 81.3984C290.404 82.7005 291.803 83.7259 293.398 84.4746C295.026 85.2233 296.751 85.5977 298.574 85.5977C300.397 85.5977 302.106 85.207 303.701 84.4258C305.329 83.612 306.745 82.554 307.949 81.252C309.154 79.9173 310.098 78.4036 310.781 76.7109C311.497 74.9857 311.855 73.2116 311.855 71.3887Z" fill="white"/>
<path d="M128.506 91.8965L129.317 91.3122L128.663 90.4026L127.833 91.1565L128.506 91.8965ZM125.039 94.6797L125.614 95.4979L125.618 95.4949L125.039 94.6797ZM121.23 96.9258L121.651 97.8331L121.66 97.8289L121.669 97.8245L121.23 96.9258ZM117.08 98.3906L116.838 97.4205L116.824 97.4238L116.811 97.4274L117.08 98.3906ZM96.2305 92.4336L95.5234 93.1407L95.5288 93.1461L95.5343 93.1515L96.2305 92.4336ZM91.2012 84.7676L90.2719 85.1373L90.2769 85.1493L91.2012 84.7676ZM89.3945 45.7051V44.7051H88.3945V45.7051H89.3945ZM102.676 45.7051H103.676V44.7051H102.676V45.7051ZM103.457 79.3477L102.52 79.6964L102.525 79.7097L102.53 79.7228L103.457 79.3477ZM105.654 82.8145L106.374 82.1199L105.654 82.8145ZM108.828 84.9629L108.452 85.8897L108.461 85.893L108.828 84.9629ZM116.641 84.7676L117.097 85.6572L117.106 85.6525L116.641 84.7676ZM119.863 82.2285L119.111 81.57L119.863 82.2285ZM122.012 78.7129L122.94 79.0843L122.943 79.0764L122.012 78.7129ZM122.793 45.7051V44.7051H121.793V45.7051H122.793ZM136.123 45.7051H137.123V44.7051H136.123V45.7051ZM136.123 98V99H137.123V98H136.123ZM132.9 98L132.089 98.5843L132.388 99H132.9V98ZM127.833 91.1565C126.79 92.105 125.666 93.0077 124.46 93.8645L125.618 95.4949C126.886 94.5938 128.073 93.6411 129.179 92.6364L127.833 91.1565ZM124.464 93.8615C123.303 94.6772 122.08 95.399 120.792 96.027L121.669 97.8245C123.051 97.1505 124.366 96.3749 125.614 95.4979L124.464 93.8615ZM120.81 96.0185C119.533 96.6104 118.209 97.0776 116.838 97.4205L117.323 99.3608C118.816 98.9875 120.259 98.4782 121.651 97.8331L120.81 96.0185ZM116.811 97.4274C115.5 97.7934 114.158 97.9766 112.783 97.9766V99.9766C114.338 99.9766 115.861 99.7691 117.349 99.3538L116.811 97.4274ZM112.783 97.9766C109.681 97.9766 106.781 97.4288 104.074 96.3398L103.328 98.1953C106.285 99.385 109.44 99.9766 112.783 99.9766V97.9766ZM104.074 96.3398C101.36 95.2479 98.9801 93.707 96.9266 91.7157L95.5343 93.1515C97.7777 95.3269 100.378 97.0086 103.328 98.1953L104.074 96.3398ZM96.9376 91.7265C94.9223 89.7112 93.3163 87.2691 92.1254 84.3858L90.2769 85.1493C91.56 88.2557 93.3069 90.9242 95.5234 93.1407L96.9376 91.7265ZM92.1303 84.3979C90.9791 81.5044 90.3945 78.2469 90.3945 74.6113H88.3945C88.3945 78.4628 89.0143 81.9761 90.272 85.1372L92.1303 84.3979ZM90.3945 74.6113V45.7051H88.3945V74.6113H90.3945ZM89.3945 46.7051H102.676V44.7051H89.3945V46.7051ZM101.676 45.7051V74.6113H103.676V45.7051H101.676ZM101.676 74.6113C101.676 76.4676 101.951 78.1672 102.52 79.6964L104.394 78.9989C103.922 77.7286 103.676 76.2707 103.676 74.6113H101.676ZM102.53 79.7228C103.126 81.1941 103.924 82.4621 104.935 83.509L106.374 82.1199C105.562 81.2788 104.895 80.2355 104.384 78.9725L102.53 79.7228ZM104.935 83.509C105.942 84.5526 107.117 85.3483 108.452 85.8896L109.204 84.0362C108.13 83.6009 107.189 82.9643 106.374 82.1199L104.935 83.509ZM108.461 85.893C109.821 86.4299 111.264 86.6953 112.783 86.6953V84.6953C111.502 84.6953 110.309 84.4725 109.195 84.0327L108.461 85.893ZM112.783 86.6953C114.308 86.6953 115.75 86.3489 117.097 85.6571L116.184 83.878C115.122 84.4232 113.993 84.6953 112.783 84.6953V86.6953ZM117.106 85.6525C118.451 84.9448 119.623 84.0221 120.616 82.887L119.111 81.57C118.281 82.5183 117.304 83.2883 116.175 83.8827L117.106 85.6525ZM120.616 82.887C121.603 81.7591 122.378 80.4899 122.94 79.0843L121.083 78.3415C120.604 79.54 119.947 80.6146 119.111 81.57L120.616 82.887ZM122.943 79.0764C123.508 77.6287 123.793 76.1384 123.793 74.6113H121.793C121.793 75.8837 121.557 77.1278 121.08 78.3493L122.943 79.0764ZM123.793 74.6113V45.7051H121.793V74.6113H123.793ZM122.793 46.7051H136.123V44.7051H122.793V46.7051ZM135.123 45.7051V98H137.123V45.7051H135.123ZM136.123 97H132.9V99H136.123V97ZM133.712 97.4157L129.317 91.3122L127.694 92.4808L132.089 98.5843L133.712 97.4157ZM212.832 98V99H213.832V98H212.832ZM199.551 98H198.551V99H199.551V98ZM199.014 62.209L198.085 62.5804L198.092 62.5962L198.098 62.6117L199.014 62.209ZM195.449 58.6445L195.046 59.5598L195.062 59.5667L195.078 59.573L195.449 58.6445ZM190.273 58.6445L190.658 59.5676L190.667 59.5638L190.676 59.5598L190.273 58.6445ZM188.174 60.0605L187.467 59.3534L187.457 59.363L187.448 59.3728L188.174 60.0605ZM186.758 62.209L185.842 61.8062L185.836 61.8218L185.829 61.8376L186.758 62.209ZM186.27 98V99H187.27V98H186.27ZM172.939 98H171.939V99H172.939V98ZM172.402 62.209L171.474 62.5804L171.48 62.5962L171.487 62.6117L172.402 62.209ZM168.838 58.6445L168.435 59.5598L168.451 59.5667L168.466 59.573L168.838 58.6445ZM163.662 58.6445L164.047 59.5676L164.056 59.5638L164.065 59.5598L163.662 58.6445ZM161.562 60.0605L160.855 59.3534L160.846 59.363L160.837 59.3728L161.562 60.0605ZM160.146 62.209L159.231 61.8062L159.224 61.8218L159.218 61.8376L160.146 62.209ZM159.658 98V99H160.658V98H159.658ZM146.328 98H145.328V99H146.328V98ZM146.328 45.7051V44.7051H145.328V45.7051H146.328ZM149.551 45.7051L150.293 45.0351L149.995 44.7051H149.551V45.7051ZM153.164 49.709L152.422 50.3789L153.069 51.0963L153.808 50.4739L153.164 49.709ZM159.268 46.0957L159.625 47.0298L159.632 47.0269L159.268 46.0957ZM173.379 46.1445L173.012 47.0748L173.016 47.0765L173.379 46.1445ZM179.531 50.8809L178.744 51.4972L179.556 52.5352L180.337 51.4732L179.531 50.8809ZM185.586 46.1445L185.201 45.2214L185.192 45.2254L185.586 46.1445ZM189.199 45.1191L189.355 46.1069L189.368 46.1049L189.38 46.1026L189.199 45.1191ZM200.625 46.3398L200.228 47.2577L200.233 47.2596L200.625 46.3398ZM206.973 50.6367L206.259 51.3374L206.266 51.3439L206.272 51.3502L206.973 50.6367ZM212.832 97H199.551V99H212.832V97ZM200.551 98V64.7969H198.551V98H200.551ZM200.551 64.7969C200.551 63.7503 200.344 62.7502 199.929 61.8062L198.098 62.6117C198.399 63.2954 198.551 64.0205 198.551 64.7969H200.551ZM199.942 61.8376C199.566 60.8983 199.019 60.0679 198.305 59.3534L196.891 60.7677C197.413 61.2902 197.81 61.892 198.085 62.5804L199.942 61.8376ZM198.305 59.3534C197.59 58.639 196.76 58.0918 195.821 57.7161L195.078 59.573C195.766 59.8483 196.368 60.2451 196.891 60.7677L198.305 59.3534ZM195.852 57.7292C194.908 57.3139 193.908 57.1074 192.861 57.1074V59.1074C193.638 59.1074 194.363 59.259 195.046 59.5598L195.852 57.7292ZM192.861 57.1074C191.815 57.1074 190.815 57.3139 189.871 57.7292L190.676 59.5598C191.36 59.259 192.085 59.1074 192.861 59.1074V57.1074ZM189.889 57.7215C188.983 58.0989 188.174 58.6457 187.467 59.3534L188.881 60.7677C189.41 60.2384 190.001 59.8412 190.658 59.5676L189.889 57.7215ZM187.448 59.3728C186.78 60.0783 186.245 60.8919 185.842 61.8062L187.673 62.6117C187.987 61.8985 188.396 61.2798 188.9 60.7483L187.448 59.3728ZM185.829 61.8376C185.455 62.7742 185.27 63.7634 185.27 64.7969H187.27C187.27 64.0075 187.41 63.2714 187.686 62.5804L185.829 61.8376ZM185.27 64.7969V98H187.27V64.7969H185.27ZM186.27 97H172.939V99H186.27V97ZM173.939 98V64.7969H171.939V98H173.939ZM173.939 64.7969C173.939 63.7503 173.733 62.7502 173.318 61.8062L171.487 62.6117C171.788 63.2954 171.939 64.0205 171.939 64.7969H173.939ZM173.331 61.8376C172.955 60.8983 172.408 60.0679 171.693 59.3534L170.279 60.7677C170.802 61.2902 171.199 61.892 171.474 62.5804L173.331 61.8376ZM171.693 59.3534C170.979 58.639 170.149 58.0918 169.209 57.7161L168.466 59.573C169.155 59.8483 169.757 60.2451 170.279 60.7677L171.693 59.3534ZM169.241 57.7292C168.297 57.3139 167.297 57.1074 166.25 57.1074V59.1074C167.026 59.1074 167.752 59.259 168.435 59.5598L169.241 57.7292ZM166.25 57.1074C165.203 57.1074 164.203 57.3139 163.259 57.7292L164.065 59.5598C164.748 59.259 165.474 59.1074 166.25 59.1074V57.1074ZM163.277 57.7215C162.372 58.0989 161.563 58.6457 160.855 59.3534L162.27 60.7677C162.799 60.2384 163.39 59.8412 164.047 59.5676L163.277 57.7215ZM160.837 59.3728C160.168 60.0783 159.633 60.8919 159.231 61.8062L161.062 62.6117C161.376 61.8985 161.785 61.2798 162.288 60.7483L160.837 59.3728ZM159.218 61.8376C158.843 62.7742 158.658 63.7634 158.658 64.7969H160.658C160.658 64.0075 160.799 63.2714 161.075 62.5804L159.218 61.8376ZM158.658 64.7969V98H160.658V64.7969H158.658ZM159.658 97H146.328V99H159.658V97ZM147.328 98V45.7051H145.328V98H147.328ZM146.328 46.7051H149.551V44.7051H146.328V46.7051ZM148.808 46.375L152.422 50.3789L153.906 49.039L150.293 45.0351L148.808 46.375ZM153.808 50.4739C155.58 48.9817 157.518 47.8352 159.625 47.0298L158.91 45.1617C156.59 46.0489 154.459 47.3113 152.52 48.9441L153.808 50.4739ZM159.632 47.0269C161.762 46.1934 163.966 45.7773 166.25 45.7773V43.7773C163.716 43.7773 161.265 44.2402 158.903 45.1645L159.632 47.0269ZM166.25 45.7773C168.564 45.7773 170.816 46.2086 173.012 47.0748L173.746 45.2143C171.32 44.2576 168.819 43.7773 166.25 43.7773V45.7773ZM173.016 47.0765C175.171 47.9145 177.082 49.3732 178.744 51.4972L180.319 50.2646C178.465 47.8963 176.274 46.1975 173.741 45.2125L173.016 47.0765ZM180.337 51.4732C181.096 50.441 181.955 49.5682 182.914 48.8488L181.714 47.2488C180.59 48.092 179.594 49.1072 178.726 50.2885L180.337 51.4732ZM182.914 48.8488C183.896 48.113 184.917 47.519 185.98 47.0637L185.192 45.2254C183.976 45.7466 182.817 46.4222 181.714 47.2488L182.914 48.8488ZM185.971 47.0676C187.07 46.6095 188.198 46.2896 189.355 46.1069L189.043 44.1314C187.727 44.3393 186.446 44.703 185.201 45.2215L185.971 47.0676ZM189.38 46.1026C190.56 45.8853 191.72 45.7773 192.861 45.7773V43.7773C191.594 43.7773 190.312 43.8973 189.018 44.1357L189.38 46.1026ZM192.861 45.7773C195.499 45.7773 197.951 46.2731 200.228 47.2577L201.022 45.422C198.481 44.3232 195.757 43.7773 192.861 43.7773V45.7773ZM200.233 47.2596C202.558 48.252 204.564 49.6114 206.259 51.3374L207.686 49.936C205.801 48.0162 203.574 46.511 201.017 45.4201L200.233 47.2596ZM206.272 51.3502C207.998 53.0453 209.357 55.0509 210.35 57.3768L212.189 56.5919C211.098 54.035 209.593 51.8088 207.673 49.9233L206.272 51.3502ZM210.35 57.3768C211.336 59.6889 211.832 62.159 211.832 64.7969H213.832C213.832 61.9009 213.286 59.1627 212.189 56.5919L210.35 57.3768ZM211.832 64.7969V98H213.832V64.7969H211.832ZM243.398 85.207L242.629 84.5684L241.676 85.7165L243.1 86.1615L243.398 85.207ZM244.961 85.5488L244.837 86.5411L244.868 86.5449L244.899 86.5469L244.961 85.5488ZM253.652 83.5469L254.182 84.3949L254.189 84.3905L253.652 83.5469ZM256.484 81.1055L255.729 80.4505L255.727 80.4525L256.484 81.1055ZM258.535 77.8828L259.244 77.1775L258.214 76.1426L257.621 77.4767L258.535 77.8828ZM268.301 87.6973L269.119 88.2728L269.601 87.5866L269.01 86.9919L268.301 87.6973ZM264.004 92.4336L263.352 91.6754L263.344 91.682L264.004 92.4336ZM258.779 95.998L258.32 95.1098L258.314 95.1131L258.779 95.998ZM252.871 98.1953L252.643 97.2217L252.634 97.2238L252.625 97.2261L252.871 98.1953ZM236.123 96.9258L235.732 97.8464L235.736 97.8478L236.123 96.9258ZM227.627 91.2129L226.915 91.9153L226.92 91.92L227.627 91.2129ZM221.914 82.5215L220.99 82.9036L220.991 82.9067L221.914 82.5215ZM221.914 60.0605L220.989 59.6816L221.914 60.0605ZM227.627 51.3203L226.925 50.6085L226.92 50.6132L227.627 51.3203ZM236.123 45.7051L235.744 44.7798L235.74 44.7812L236.123 45.7051ZM258.828 46.7305L258.362 47.6154L258.369 47.6187L258.828 46.7305ZM264.102 50.3438L263.441 51.0945L263.45 51.1019L264.102 50.3438ZM268.398 55.0801L269.168 55.7187L269.656 55.1301L269.216 54.5046L268.398 55.0801ZM250.234 57.7168L251.033 58.3186L251.843 57.2437L250.58 56.7785L250.234 57.7168ZM248.379 57.2773L248.268 58.2712L248.274 58.2718L248.379 57.2773ZM241.348 58.2051L241.726 59.131L241.735 59.1271L241.348 58.2051ZM237.148 61.0371L236.432 60.3394L236.422 60.3494L237.148 61.0371ZM234.365 65.5293L235.295 65.8977L235.297 65.8917L234.365 65.5293ZM233.389 73.0488L232.39 73.1014L232.391 73.1275L232.394 73.1535L233.389 73.0488ZM233.633 74.9531L232.644 75.1015L232.648 75.1305L232.654 75.1591L233.633 74.9531ZM234.707 78.3223L233.839 78.8184L234.592 80.1365L235.506 78.9241L234.707 78.3223ZM243.1 86.1615C243.676 86.3413 244.255 86.4683 244.837 86.5411L245.085 84.5566C244.626 84.4991 244.163 84.3983 243.697 84.2526L243.1 86.1615ZM244.899 86.5469C245.44 86.5807 245.982 86.5977 246.523 86.5977V84.5977C246.023 84.5977 245.523 84.582 245.023 84.5508L244.899 86.5469ZM246.523 86.5977C247.918 86.5977 249.268 86.4056 250.568 86.0191L249.998 84.102C248.89 84.4316 247.733 84.5977 246.523 84.5977V86.5977ZM250.568 86.0191C251.857 85.636 253.063 85.0947 254.182 84.3949L253.122 82.6989C252.159 83.3011 251.118 83.769 249.998 84.102L250.568 86.0191ZM254.189 84.3905C255.344 83.6556 256.363 82.778 257.242 81.7584L255.727 80.4525C254.978 81.3209 254.109 82.0709 253.115 82.7032L254.189 84.3905ZM257.24 81.7604C258.151 80.7098 258.888 79.5518 259.449 78.289L257.621 77.4767C257.141 78.5576 256.511 79.5481 255.729 80.4505L257.24 81.7604ZM257.826 78.5882L267.592 88.4026L269.01 86.9919L259.244 77.1775L257.826 78.5882ZM267.483 87.1218C266.293 88.8122 264.917 90.3296 263.352 91.6754L264.656 93.1918C266.346 91.7381 267.834 90.098 269.119 88.2728L267.483 87.1218ZM263.344 91.682C261.81 93.0281 260.136 94.1705 258.32 95.1098L259.239 96.8863C261.199 95.8725 263.007 94.6385 264.663 93.1852L263.344 91.682ZM258.314 95.1131C256.535 96.0494 254.645 96.7524 252.643 97.2217L253.099 99.1689C255.264 98.6617 257.313 97.8999 259.245 96.883L258.314 95.1131ZM252.625 97.2261C250.657 97.7259 248.624 97.9766 246.523 97.9766V99.9766C248.785 99.9766 250.984 99.7064 253.117 99.1645L252.625 97.2261ZM246.523 97.9766C242.972 97.9766 239.638 97.3173 236.51 96.0038L235.736 97.8478C239.119 99.2686 242.718 99.9766 246.523 99.9766V97.9766ZM236.514 96.0052C233.408 94.6875 230.683 92.8551 228.334 90.5058L226.92 91.92C229.453 94.4535 232.393 96.4297 235.732 97.8464L236.514 96.0052ZM228.339 90.5105C226.025 88.1657 224.19 85.378 222.837 82.1362L220.991 82.9067C222.437 86.3707 224.411 89.3773 226.915 91.9152L228.339 90.5105ZM222.838 82.1394C221.493 78.8869 220.814 75.3074 220.814 71.3887H218.814C218.814 75.5428 219.535 79.3852 220.99 82.9036L222.838 82.1394ZM220.814 71.3887C220.814 67.3691 221.495 63.7237 222.839 60.4395L220.989 59.6816C219.534 63.2334 218.814 67.1401 218.814 71.3887H220.814ZM222.839 60.4395C224.193 57.1339 226.027 54.3348 228.334 52.0274L226.92 50.6132C224.41 53.1235 222.434 56.1513 220.989 59.6816L222.839 60.4395ZM228.329 52.0321C230.677 49.7155 233.4 47.9151 236.506 46.629L235.74 44.7812C232.401 46.1643 229.459 48.1074 226.925 50.6085L228.329 52.0321ZM236.502 46.6303C239.632 45.3473 242.969 44.7031 246.523 44.7031V42.7031C242.721 42.7031 239.125 43.3936 235.744 44.7798L236.502 46.6303ZM246.523 44.7031C248.624 44.7031 250.675 44.9538 252.677 45.4545L253.162 43.5142C250.999 42.9733 248.785 42.7031 246.523 42.7031V44.7031ZM252.677 45.4545C254.685 45.9564 256.579 46.6769 258.362 47.6154L259.294 45.8456C257.366 44.8309 255.321 44.054 253.162 43.5142L252.677 45.4545ZM258.369 47.6187C260.183 48.557 261.873 49.715 263.441 51.0945L264.762 49.593C263.075 48.108 261.249 46.857 259.288 45.8423L258.369 47.6187ZM263.45 51.1019C265.014 52.4478 266.391 53.9652 267.581 55.6556L269.216 54.5046C267.932 52.6794 266.444 51.0392 264.754 49.5856L263.45 51.1019ZM267.629 54.4415L242.629 84.5684L244.168 85.8456L269.168 55.7187L267.629 54.4415ZM250.58 56.7785C249.889 56.5237 249.189 56.3571 248.484 56.2828L248.274 58.2718C248.806 58.3278 249.343 58.4542 249.889 58.6551L250.58 56.7785ZM248.489 56.2835C247.863 56.2139 247.208 56.1797 246.523 56.1797V58.1797C247.141 58.1797 247.723 58.2106 248.268 58.2712L248.489 56.2835ZM246.523 56.1797C244.572 56.1797 242.715 56.5463 240.96 57.2831L241.735 59.1271C243.236 58.4967 244.829 58.1797 246.523 58.1797V56.1797ZM240.97 57.2792C239.247 57.9824 237.732 59.0042 236.432 60.3395L237.865 61.7347C238.974 60.5961 240.258 59.7299 241.726 59.1309L240.97 57.2792ZM236.422 60.3494C235.152 61.69 234.159 63.3012 233.433 65.1669L235.297 65.8917C235.939 64.2418 236.801 62.8582 237.874 61.7249L236.422 60.3494ZM233.436 65.1609C232.698 67.0221 232.34 69.1033 232.34 71.3887H234.34C234.34 69.3121 234.665 67.487 235.295 65.8977L233.436 65.1609ZM232.34 71.3887C232.34 71.8984 232.357 72.4698 232.39 73.1014L234.387 72.9963C234.355 72.3909 234.34 71.8555 234.34 71.3887H232.34ZM232.394 73.1535C232.461 73.7874 232.544 74.4368 232.644 75.1015L234.622 74.8048C234.526 74.1674 234.447 73.5472 234.383 72.9441L232.394 73.1535ZM232.654 75.1591C232.789 75.7975 232.94 76.4203 233.109 77.0274L235.036 76.4921C234.879 75.9273 234.737 75.3457 234.611 74.7471L232.654 75.1591ZM233.109 77.0274C233.29 77.6809 233.531 78.2805 233.839 78.8184L235.575 77.8261C235.362 77.4526 235.18 77.0105 235.036 76.4921L233.109 77.0274ZM235.506 78.9241L251.033 58.3186L249.436 57.115L233.908 77.7205L235.506 78.9241ZM325.283 98V99H326.283V98H325.283ZM322.061 98L321.249 98.5849L321.549 99H322.061V98ZM316.885 90.8223L317.696 90.2374L317.045 89.3348L316.217 90.078L316.885 90.8223ZM312.832 94.0449L313.404 94.8651L313.408 94.8624L312.832 94.0449ZM308.389 96.6328L308.805 97.5419L308.813 97.5383L308.821 97.5346L308.389 96.6328ZM303.555 98.3418L303.308 97.3728L303.303 97.374L303.555 98.3418ZM288.174 96.9258L287.775 97.8431L287.787 97.8478L288.174 96.9258ZM279.678 91.1641L278.961 91.8617L278.971 91.8712L279.678 91.1641ZM273.965 82.4238L273.041 82.8059L273.042 82.8091L273.965 82.4238ZM273.965 60.4023L273.041 60.0203L273.965 60.4023ZM279.678 51.6133L278.966 50.9109L278.961 50.9157L279.678 51.6133ZM288.174 45.8027L287.779 44.8841L287.775 44.8855L288.174 45.8027ZM302.188 43.9961L302.032 44.9839L302.035 44.9845L302.188 43.9961ZM305.85 44.9727L305.487 45.9047L305.503 45.9106L305.518 45.9161L305.85 44.9727ZM311.855 49.3184L311.031 49.8849L312.855 52.538V49.3184H311.855ZM311.855 24.9043V23.9043H310.855V24.9043H311.855ZM325.283 24.9043H326.283V23.9043H325.283V24.9043ZM310.781 66.1152L309.852 66.4836L309.856 66.4943L309.86 66.5049L310.781 66.1152ZM307.949 61.5742L307.207 62.2442L307.215 62.2533L307.949 61.5742ZM303.701 58.4004L303.247 59.2912L303.258 59.2967L303.268 59.3019L303.701 58.4004ZM293.398 58.1562L293.027 57.2278L293.021 57.2304L293.398 58.1562ZM289.199 60.9883L288.483 60.2907L288.482 60.2909L289.199 60.9883ZM289.199 81.3984L288.456 82.0675L288.465 82.0775L289.199 81.3984ZM293.398 84.4746L292.974 85.3799L292.981 85.3831L293.398 84.4746ZM303.701 84.4258L304.141 85.3239L304.148 85.3202L303.701 84.4258ZM307.949 81.252L308.683 81.931L308.692 81.9219L307.949 81.252ZM310.781 76.7109L309.858 76.3275L309.854 76.3365L310.781 76.7109ZM325.283 97H322.061V99H325.283V97ZM322.872 97.4151L317.696 90.2374L316.074 91.4072L321.249 98.5849L322.872 97.4151ZM316.217 90.078C314.977 91.1905 313.657 92.2403 312.256 93.2274L313.408 94.8624C314.871 93.8313 316.253 92.7327 317.553 91.5665L316.217 90.078ZM312.26 93.2248C310.905 94.1699 309.471 95.0053 307.957 95.731L308.821 97.5346C310.431 96.7629 311.959 95.8731 313.404 94.865L312.26 93.2248ZM307.972 95.7237C306.464 96.4149 304.909 96.9645 303.308 97.3728L303.802 99.3108C305.52 98.8727 307.188 98.283 308.805 97.5419L307.972 95.7237ZM303.303 97.374C301.758 97.7756 300.183 97.9766 298.574 97.9766V99.9766C300.351 99.9766 302.096 99.7543 303.806 99.3096L303.303 97.374ZM298.574 97.9766C295.023 97.9766 291.689 97.3173 288.561 96.0038L287.787 97.8478C291.17 99.2686 294.769 99.9766 298.574 99.9766V97.9766ZM288.572 96.0086C285.463 94.658 282.736 92.808 280.385 90.457L278.971 91.8712C281.502 94.403 284.44 96.3941 287.775 97.843L288.572 96.0086ZM280.394 90.4664C278.078 88.0873 276.241 85.2814 274.888 82.0386L273.042 82.8091C274.488 86.272 276.46 89.2929 278.961 91.8617L280.394 90.4664ZM274.889 82.0417C273.543 78.7873 272.865 75.24 272.865 71.3887H270.865C270.865 75.48 271.587 79.2895 273.041 82.8059L274.889 82.0417ZM272.865 71.3887C272.865 67.571 273.543 64.0398 274.889 60.7844L273.041 60.0203C271.587 63.5357 270.865 67.3287 270.865 71.3887H272.865ZM274.889 60.7844C276.243 57.5092 278.079 54.6884 280.394 52.3109L278.961 50.9157C276.458 53.4861 274.486 56.5247 273.041 60.0203L274.889 60.7844ZM280.39 52.3157C282.74 49.9337 285.465 48.0693 288.572 46.72L287.775 44.8855C284.437 46.3356 281.498 48.3449 278.966 50.9109L280.39 52.3157ZM288.569 46.7214C291.695 45.3774 295.026 44.7031 298.574 44.7031V42.7031C294.765 42.7031 291.164 43.4286 287.779 44.8841L288.569 46.7214ZM298.574 44.7031C299.69 44.7031 300.843 44.7961 302.032 44.9839L302.343 43.0083C301.058 42.8054 299.802 42.7031 298.574 42.7031V44.7031ZM302.035 44.9845C303.235 45.1689 304.385 45.4759 305.487 45.9047L306.212 44.0407C304.971 43.558 303.68 43.2139 302.34 43.0077L302.035 44.9845ZM305.518 45.9161C306.64 46.3103 307.684 46.84 308.652 47.5057L309.785 45.8576C308.67 45.091 307.468 44.4813 306.181 44.0292L305.518 45.9161ZM308.652 47.5057C309.593 48.1525 310.385 48.9441 311.031 49.8849L312.68 48.7518C311.894 47.6093 310.928 46.6431 309.785 45.8576L308.652 47.5057ZM312.855 49.3184V24.9043H310.855V49.3184H312.855ZM311.855 25.9043H325.283V23.9043H311.855V25.9043ZM324.283 24.9043V98H326.283V24.9043H324.283ZM312.855 71.3887C312.855 69.4308 312.47 67.5405 311.702 65.7256L309.86 66.5049C310.525 68.0753 310.855 69.7007 310.855 71.3887H312.855ZM311.711 65.7469C310.984 63.9123 309.975 62.292 308.683 60.8952L307.215 62.2533C308.332 63.4606 309.211 64.8677 309.852 66.4836L311.711 65.7469ZM308.692 60.9043C307.4 59.4726 305.878 58.3362 304.134 57.4989L303.268 59.3019C304.779 60.0271 306.09 61.0066 307.207 62.2442L308.692 60.9043ZM304.156 57.5096C302.417 56.6227 300.552 56.1797 298.574 56.1797V58.1797C300.242 58.1797 301.795 58.5505 303.247 59.2912L304.156 57.5096ZM298.574 56.1797C296.629 56.1797 294.777 56.5276 293.027 57.2278L293.77 59.0847C295.275 58.4828 296.873 58.1797 298.574 58.1797V56.1797ZM293.021 57.2304C291.298 57.9335 289.783 58.9553 288.483 60.2907L289.916 61.6859C291.024 60.5473 292.309 59.681 293.776 59.0821L293.021 57.2304ZM288.482 60.2909C287.206 61.6025 286.21 63.2017 285.484 65.0692L287.348 65.7941C287.989 64.1459 288.848 62.7829 289.916 61.6856L288.482 60.2909ZM285.484 65.0692C284.748 66.9608 284.391 69.0723 284.391 71.3887H286.391C286.391 69.278 286.716 67.4182 287.348 65.7941L285.484 65.0692ZM284.391 71.3887C284.391 73.4309 284.755 75.3792 285.486 77.2258L287.346 76.4891C286.71 74.8852 286.391 73.1876 286.391 71.3887H284.391ZM285.486 77.2258C286.211 79.0549 287.2 80.6718 288.456 82.0674L289.943 80.7295C288.855 79.5209 287.988 78.1105 287.346 76.4891L285.486 77.2258ZM288.465 82.0775C289.756 83.4735 291.261 84.576 292.974 85.3798L293.823 83.5694C292.346 82.8758 291.051 81.9275 289.933 80.7194L288.465 82.0775ZM292.981 85.3831C294.742 86.1932 296.61 86.5977 298.574 86.5977V84.5977C296.893 84.5977 295.311 84.2534 293.816 83.5661L292.981 85.3831ZM298.574 86.5977C300.545 86.5977 302.405 86.174 304.141 85.3238L303.261 83.5277C301.807 84.2401 300.249 84.5977 298.574 84.5977V86.5977ZM304.148 85.3202C305.881 84.4539 307.395 83.3239 308.683 81.931L307.215 80.5729C306.095 81.7842 304.777 82.77 303.254 83.5314L304.148 85.3202ZM308.692 81.9219C309.976 80.499 310.982 78.885 311.708 77.0854L309.854 76.3365C309.214 77.9223 308.332 79.3356 307.207 80.582L308.692 81.9219ZM311.705 77.0943C312.47 75.2506 312.855 73.3465 312.855 71.3887H310.855C310.855 73.0767 310.525 74.7207 309.858 76.3276L311.705 77.0943Z" fill="white"/>
<path d="M25 89H22L18.5 84.5H14.5" stroke="white"/>
<path d="M25 39H22L18.5 43.5H14.5" stroke="white"/>
<path d="M24.5 76.5H21.5L18 72H9" stroke="white"/>
<path d="M24.5 52.5H21.5L18 57H9" stroke="white"/>
<path d="M5.00183 62C2.24422 62 0 59.7529 0 57C0 54.2434 2.24422 52 5.00183 52C7.75578 52 10 54.2434 10 57C10 59.7529 7.75578 62 5.00183 62ZM5.00183 55.1891C4.00073 55.1891 3.19032 56.0029 3.19032 57C3.19032 57.9971 4.00073 58.8109 5.00183 58.8109C5.99927 58.8109 6.81335 57.9971 6.81335 57C6.81335 56.0029 5.99927 55.1891 5.00183 55.1891Z" fill="white"/>
<path d="M5.00183 76C2.24422 76 0 73.7529 0 71C0 68.2434 2.24422 66 5.00183 66C7.75578 66 10 68.2434 10 71C10 73.7529 7.75578 76 5.00183 76ZM5.00183 69.1891C4.00073 69.1891 3.19032 70.0029 3.19032 71C3.19032 71.9971 4.00073 72.8109 5.00183 72.8109C5.99927 72.8109 6.81335 71.9971 6.81335 71C6.81335 70.0029 5.99927 69.1891 5.00183 69.1891Z" fill="white"/>
<path d="M10.0018 89C7.24422 89 5 86.7529 5 84C5 81.2434 7.24422 79 10.0018 79C12.7558 79 15 81.2434 15 84C15 86.7529 12.7558 89 10.0018 89ZM10.0018 82.1891C9.00073 82.1891 8.19032 83.0029 8.19032 84C8.19032 84.9971 9.00073 85.8109 10.0018 85.8109C10.9993 85.8109 11.8133 84.9971 11.8133 84C11.8133 83.0029 10.9993 82.1891 10.0018 82.1891Z" fill="white"/>
<path d="M10.0018 48C7.24422 48 5 45.7529 5 43C5 40.2434 7.24422 38 10.0018 38C12.7558 38 15 40.2434 15 43C15 45.7529 12.7558 48 10.0018 48ZM10.0018 41.1891C9.00073 41.1891 8.19032 42.0029 8.19032 43C8.19032 43.9971 9.00073 44.8109 10.0018 44.8109C10.9993 44.8109 11.8133 43.9971 11.8133 43C11.8133 42.0029 10.9993 41.1891 10.0018 41.1891Z" fill="white"/>
<rect x="20" y="63" width="2" height="2" fill="white"/>
<rect x="15" y="47" width="2" height="2" fill="white"/>
<rect x="13" y="75" width="2" height="2" fill="white"/>
<path d="M356.5 46.5H366L370.5 54L373 43L378 38.5" stroke="white"/>
<path d="M348 87H355.485L361 67" stroke="white"/>
<path d="M390.501 92C389.122 92 388 90.8765 388 89.5C388 88.1217 389.122 87 390.501 87C391.878 87 393 88.1217 393 89.5C393 90.8765 391.878 92 390.501 92ZM390.501 88.5946C390 88.5946 389.595 89.0015 389.595 89.5C389.595 89.9985 390 90.4054 390.501 90.4054C391 90.4054 391.407 89.9985 391.407 89.5C391.407 89.0015 391 88.5946 390.501 88.5946Z" fill="white"/>
<path d="M434.501 80C433.122 80 432 78.8765 432 77.5C432 76.1217 433.122 75 434.501 75C435.878 75 437 76.1217 437 77.5C437 78.8765 435.878 80 434.501 80ZM434.501 76.5946C434 76.5946 433.595 77.0015 433.595 77.5C433.595 77.9985 434 78.4054 434.501 78.4054C435 78.4054 435.407 77.9985 435.407 77.5C435.407 77.0015 435 76.5946 434.501 76.5946Z" fill="white"/>
<path d="M429.501 67C428.122 67 427 65.8765 427 64.5C427 63.1217 428.122 62 429.501 62C430.878 62 432 63.1217 432 64.5C432 65.8765 430.878 67 429.501 67ZM429.501 63.5946C429 63.5946 428.595 64.0015 428.595 64.5C428.595 64.9985 429 65.4054 429.501 65.4054C430 65.4054 430.407 64.9985 430.407 64.5C430.407 64.0015 430 63.5946 429.501 63.5946Z" fill="white"/>
<path d="M435.501 53C434.122 53 433 51.8765 433 50.5C433 49.1217 434.122 48 435.501 48C436.878 48 438 49.1217 438 50.5C438 51.8765 436.878 53 435.501 53ZM435.501 49.5946C435 49.5946 434.595 50.0015 434.595 50.5C434.595 50.9985 435 51.4054 435.501 51.4054C436 51.4054 436.407 50.9985 436.407 50.5C436.407 50.0015 436 49.5946 435.501 49.5946Z" fill="white"/>
<path d="M361.501 68C360.122 68 359 66.8765 359 65.5C359 64.1217 360.122 63 361.501 63C362.878 63 364 64.1217 364 65.5C364 66.8765 362.878 68 361.501 68ZM361.501 64.5946C361 64.5946 360.595 65.0015 360.595 65.5C360.595 65.9985 361 66.4054 361.501 66.4054C362 66.4054 362.407 65.9985 362.407 65.5C362.407 65.0015 362 64.5946 361.501 64.5946Z" fill="white"/>
<path d="M388.501 70C387.122 70 386 68.8765 386 67.5C386 66.1217 387.122 65 388.501 65C389.878 65 391 66.1217 391 67.5C391 68.8765 389.878 70 388.501 70ZM388.501 66.5946C388 66.5946 387.595 67.0015 387.595 67.5C387.595 67.9985 388 68.4054 388.501 68.4054C389 68.4054 389.407 67.9985 389.407 67.5C389.407 67.0015 389 66.5946 388.501 66.5946Z" fill="white"/>
<path d="M379.501 40C378.122 40 377 38.8765 377 37.5C377 36.1217 378.122 35 379.501 35C380.878 35 382 36.1217 382 37.5C382 38.8765 380.878 40 379.501 40ZM379.501 36.5946C379 36.5946 378.595 37.0015 378.595 37.5C378.595 37.9985 379 38.4054 379.501 38.4054C380 38.4054 380.407 37.9985 380.407 37.5C380.407 37.0015 380 36.5946 379.501 36.5946Z" fill="white"/>
<path d="M392 38.5L383 47.5L387.5 65.5" stroke="white"/>
<path d="M450 89H434.5V78.5" stroke="white"/>
<path d="M422.5 36H427.5V50.5H433.5" stroke="white"/>
<rect x="352" y="83" width="2" height="2" fill="white"/>
<rect x="362" y="42" width="2" height="2" fill="white"/>
<rect x="389" y="45" width="2" height="2" fill="white"/>
<rect x="396" y="81" width="2" height="2" fill="white"/>
<rect x="429" y="40" width="2" height="2" fill="white"/>
<rect x="444" y="59" width="2" height="2" fill="white"/>
<rect x="431" y="84" width="2" height="2" fill="white"/>
<path d="M379.5 68L376 51L372 68H379.5Z" fill="white" stroke="white" stroke-linejoin="bevel"/>
<path d="M81.5 98H66.5098L39.5078 51.9062V98H25.4941V27.9805H40.4844L67.4863 74.123V27.9805H81.5V98Z" fill="white"/>
<path d="M81.5 98V99H82.5V98H81.5ZM66.5098 98L65.6469 98.5055L65.9366 99H66.5098V98ZM39.5078 51.9062L40.3707 51.4008L38.5078 48.2208V51.9062H39.5078ZM39.5078 98V99H40.5078V98H39.5078ZM25.4941 98H24.4941V99H25.4941V98ZM25.4941 27.9805V26.9805H24.4941V27.9805H25.4941ZM40.4844 27.9805L41.3475 27.4754L41.0578 26.9805H40.4844V27.9805ZM67.4863 74.123L66.6232 74.6281L68.4863 77.8119V74.123H67.4863ZM67.4863 27.9805V26.9805H66.4863V27.9805H67.4863ZM81.5 27.9805H82.5V26.9805H81.5V27.9805ZM81.5 97H66.5098V99H81.5V97ZM67.3726 97.4945L40.3707 51.4008L38.645 52.4117L65.6469 98.5055L67.3726 97.4945ZM38.5078 51.9062V98H40.5078V51.9062H38.5078ZM39.5078 97H25.4941V99H39.5078V97ZM26.4941 98V27.9805H24.4941V98H26.4941ZM25.4941 28.9805H40.4844V26.9805H25.4941V28.9805ZM39.6213 28.4855L66.6232 74.6281L68.3494 73.618L41.3475 27.4754L39.6213 28.4855ZM68.4863 74.123V27.9805H66.4863V74.123H68.4863ZM67.4863 28.9805H81.5V26.9805H67.4863V28.9805ZM80.5 27.9805V98H82.5V27.9805H80.5Z" fill="white"/>
<g filter="url(#filter0_d_102_86)">
<path d="M24.5 27L41.0742 27L82.4999 97.5L65 99L24.5 27Z" fill="white"/>
</g>
<path d="M82.5 99V97.5L65 99H82.5Z" fill="white"/>
<path d="M366.984 96V101H371.09L371.888 96.9728L366.984 96ZM346.824 96L341.964 94.8266L340.473 101H346.824V96ZM363.048 28.8V23.8H359.111L358.188 27.6266L363.048 28.8ZM388.584 28.8L393.443 27.62L392.515 23.8H388.584V28.8ZM404.904 96V101H411.264L409.763 94.82L404.904 96ZM384.744 96L379.84 96.9728L380.638 101H384.744V96ZM382.44 84.384L387.344 83.4112L386.546 79.384H382.44V84.384ZM369.288 84.384V79.384H365.182L364.384 83.4112L369.288 84.384ZM375.816 51.072L380.72 50.0968H370.912L375.816 51.072ZM372.456 67.968L367.552 66.9928L366.364 72.968H372.456V67.968ZM379.176 67.968V72.968H385.268L384.08 66.9928L379.176 67.968ZM366.984 91H346.824V101H366.984V91ZM351.684 97.1734L367.908 29.9734L358.188 27.6266L341.964 94.8266L351.684 97.1734ZM363.048 33.8H388.584V23.8H363.048V33.8ZM383.725 29.98L400.045 97.18L409.763 94.82L393.443 27.62L383.725 29.98ZM404.904 91H384.744V101H404.904V91ZM389.648 95.0272L387.344 83.4112L377.536 85.3568L379.84 96.9728L389.648 95.0272ZM382.44 79.384H369.288V89.384H382.44V79.384ZM364.384 83.4112L362.08 95.0272L371.888 96.9728L374.192 85.3568L364.384 83.4112ZM370.912 50.0968L367.552 66.9928L377.36 68.9432L380.72 52.0472L370.912 50.0968ZM372.456 72.968H379.176V62.968H372.456V72.968ZM384.08 66.9928L380.72 50.0968L370.912 52.0472L374.272 68.9432L384.08 66.9928ZM423.488 28.8V23.8H418.488V28.8H423.488ZM448.064 28.8H453.064V23.8H448.064V28.8ZM448.064 96V101H453.064V96H448.064ZM423.488 96H418.488V101H423.488V96ZM423.488 33.8H448.064V23.8H423.488V33.8ZM443.064 28.8V96H453.064V28.8H443.064ZM448.064 91H423.488V101H448.064V91ZM428.488 96V28.8H418.488V96H428.488Z" fill="white"/>
<defs>
<filter id="filter0_d_102_86" x="15.5" y="21" width="78" height="92" filterUnits="userSpaceOnUse" color-interpolation-filters="sRGB">
<feFlood flood-opacity="0" result="BackgroundImageFix"/>
<feColorMatrix in="SourceAlpha" type="matrix" values="0 0 0 0 0 0 0 0 0 0 0 0 0 0 0 0 0 0 127 0" result="hardAlpha"/>
<feOffset dx="1" dy="4"/>
<feGaussianBlur stdDeviation="5"/>
<feComposite in2="hardAlpha" operator="out"/>
<feColorMatrix type="matrix" values="0 0 0 0 0 0 0 0 0 0 0 0 0 0 0 0 0 0 0.2 0"/>
<feBlend mode="normal" in2="BackgroundImageFix" result="effect1_dropShadow_102_86"/>
<feBlend mode="normal" in="SourceGraphic" in2="effect1_dropShadow_102_86" result="shape"/>
</filter>
</defs>
</svg>
